<svg xmlns="http://www.w3.org/2000/svg" width="270" height="50" viewBox="0 0 270 50">
  <g id="Group_5" data-name="Group 5" transform="translate(30.372 9.74)">
    <g id="Rectangle_105" data-name="Rectangle 105" transform="translate(-30.372 -9.74)" fill="none" stroke="#f2f2f2" stroke-width="1">
      <rect width="270" height="50" rx="10" stroke="none"/>
      <rect x="0.5" y="0.5" width="269" height="49" rx="9.5" fill="none"/>
    </g>
    <path id="Icon_awesome-google-play" data-name="Icon awesome-google-play" d="M22.873,16.474,7.355.914,27.1,12.248l-4.226,4.226ZM3.3,0A2.733,2.733,0,0,0,1.779,2.482V33.511A2.733,2.733,0,0,0,3.3,35.993l18.042-18ZM33.2,15.863l-4.141-2.4L24.441,18l4.62,4.535,4.226-2.4a2.821,2.821,0,0,0-.084-4.275ZM7.355,35.086,27.1,23.752l-4.226-4.226Z" transform="translate(-1.779 -2.74)" fill="#f2f2f2"/>
    <text id="Google_Play" data-name="Google Play" transform="translate(48.872 -0.74)" fill="#f2f2f2" font-size="28" font-family="Perpetua-Bold, Perpetua" font-weight="700"><tspan x="0" y="23">Google Play</tspan></text>
  </g>
</svg>
